<mxfile host="app.diagrams.net" modified="2023-07-18T10:35:46.394Z" agent="Mozilla/5.0 (X11; Ubuntu; Linux x86_64; rv:109.0) Gecko/20100101 Firefox/113.0" etag="vTSUuicPz1f4VHegGmAE" version="21.6.2">
  <diagram name="Page-1" id="ikfRO7UUrmXemoA0gaqJ">
    <mxGraphModel dx="651" dy="379" grid="1" gridSize="10" guides="1" tooltips="1" connect="1" arrows="1" fold="1" page="1" pageScale="1" pageWidth="827" pageHeight="1169" math="0" shadow="0">
      <root>
        <mxCell id="0" />
        <mxCell id="1" parent="0" />
        <mxCell id="R73SPkWnWkPIp1eINAzx-33" value="" style="rounded=0;whiteSpace=wrap;html=1;rotation=-55;strokeColor=none;fillColor=#f8cecc;" vertex="1" parent="1">
          <mxGeometry x="195.91" y="286.91" width="194.61" height="71.25" as="geometry" />
        </mxCell>
        <mxCell id="R73SPkWnWkPIp1eINAzx-10" value="" style="rounded=1;whiteSpace=wrap;html=1;rotation=-60;" vertex="1" parent="1">
          <mxGeometry x="178.83999999999997" y="258.75" width="72.33" height="32.5" as="geometry" />
        </mxCell>
        <mxCell id="R73SPkWnWkPIp1eINAzx-9" value="" style="rounded=1;whiteSpace=wrap;html=1;rotation=-60;" vertex="1" parent="1">
          <mxGeometry x="338.84" y="358.75" width="72.33" height="32.5" as="geometry" />
        </mxCell>
        <mxCell id="R73SPkWnWkPIp1eINAzx-15" value="" style="endArrow=none;html=1;rounded=0;dashed=1;dashPattern=12 12;fillColor=#f8cecc;strokeColor=#b85450;" edge="1" parent="1">
          <mxGeometry width="50" height="50" relative="1" as="geometry">
            <mxPoint x="270" y="420" as="sourcePoint" />
            <mxPoint x="380" y="260" as="targetPoint" />
          </mxGeometry>
        </mxCell>
        <mxCell id="R73SPkWnWkPIp1eINAzx-16" value="" style="endArrow=none;html=1;rounded=0;dashed=1;dashPattern=12 12;fillColor=#f8cecc;strokeColor=#b85450;" edge="1" parent="1">
          <mxGeometry width="50" height="50" relative="1" as="geometry">
            <mxPoint x="210" y="380" as="sourcePoint" />
            <mxPoint x="320" y="220" as="targetPoint" />
          </mxGeometry>
        </mxCell>
        <mxCell id="R73SPkWnWkPIp1eINAzx-19" value="" style="endArrow=classic;startArrow=classic;html=1;rounded=0;" edge="1" parent="1">
          <mxGeometry width="50" height="50" relative="1" as="geometry">
            <mxPoint x="329" y="209" as="sourcePoint" />
            <mxPoint x="389" y="249" as="targetPoint" />
          </mxGeometry>
        </mxCell>
        <mxCell id="R73SPkWnWkPIp1eINAzx-20" value="D&lt;sub&gt;sf&lt;/sub&gt;" style="text;html=1;strokeColor=none;fillColor=none;align=center;verticalAlign=middle;whiteSpace=wrap;rounded=0;" vertex="1" parent="1">
          <mxGeometry x="345" y="200" width="60" height="30" as="geometry" />
        </mxCell>
        <mxCell id="R73SPkWnWkPIp1eINAzx-21" value="a&lt;sub&gt;x&lt;/sub&gt;" style="text;html=1;strokeColor=none;fillColor=none;align=center;verticalAlign=middle;whiteSpace=wrap;rounded=0;" vertex="1" parent="1">
          <mxGeometry x="354" y="340" width="60" height="30" as="geometry" />
        </mxCell>
        <mxCell id="R73SPkWnWkPIp1eINAzx-22" value="a&lt;sub&gt;y&lt;/sub&gt;" style="text;html=1;strokeColor=none;fillColor=none;align=center;verticalAlign=middle;whiteSpace=wrap;rounded=0;" vertex="1" parent="1">
          <mxGeometry x="191.17000000000002" y="240" width="60" height="30" as="geometry" />
        </mxCell>
        <mxCell id="R73SPkWnWkPIp1eINAzx-23" value="Plane x-y" style="text;html=1;strokeColor=none;fillColor=none;align=center;verticalAlign=middle;whiteSpace=wrap;rounded=0;" vertex="1" parent="1">
          <mxGeometry x="206.17000000000002" y="420" width="45" height="30" as="geometry" />
        </mxCell>
        <mxCell id="R73SPkWnWkPIp1eINAzx-31" value="" style="shape=orEllipse;perimeter=ellipsePerimeter;whiteSpace=wrap;html=1;backgroundOutline=1;" vertex="1" parent="1">
          <mxGeometry x="370" y="370" width="10" height="10" as="geometry" />
        </mxCell>
        <mxCell id="R73SPkWnWkPIp1eINAzx-32" value="" style="shape=orEllipse;perimeter=ellipsePerimeter;whiteSpace=wrap;html=1;backgroundOutline=1;" vertex="1" parent="1">
          <mxGeometry x="210.01" y="270" width="10" height="10" as="geometry" />
        </mxCell>
        <mxCell id="R73SPkWnWkPIp1eINAzx-8" value="" style="endArrow=none;dashed=1;html=1;rounded=0;entryX=0.528;entryY=0.594;entryDx=0;entryDy=0;entryPerimeter=0;exitX=0.471;exitY=0.483;exitDx=0;exitDy=0;exitPerimeter=0;" edge="1" parent="1" source="R73SPkWnWkPIp1eINAzx-32" target="R73SPkWnWkPIp1eINAzx-31">
          <mxGeometry width="50" height="50" relative="1" as="geometry">
            <mxPoint x="218.53553390593277" y="278.5355339059329" as="sourcePoint" />
            <mxPoint x="371.94000000000005" y="373.72" as="targetPoint" />
            <Array as="points" />
          </mxGeometry>
        </mxCell>
        <mxCell id="R73SPkWnWkPIp1eINAzx-36" value="" style="endArrow=none;html=1;rounded=0;fillColor=#f8cecc;strokeColor=#000000;" edge="1" parent="1">
          <mxGeometry width="50" height="50" relative="1" as="geometry">
            <mxPoint x="238.22" y="402.54" as="sourcePoint" />
            <mxPoint x="348.22" y="242.54" as="targetPoint" />
          </mxGeometry>
        </mxCell>
      </root>
    </mxGraphModel>
  </diagram>
</mxfile>
